# xmcd
# 
# Track frame offsets:
#     150
#     22247
#     39895
#     59067
#     79007
#     105460
#     127160
#     149152
#     166322
#     184137
#     209442
#     233787
# 
# Disc length: 3589
# 
# Revision: 33
# Processed by: cddbd v1.5.2PL0 Copyright (c) Steve Scherf et al.
# Submitted via: fre:ac v1.0.17
# 
DISCID=b10e030c
DTITLE=Iron Maiden - A Real Dead One
DYEAR=1993
DGENRE=Heavy Metal
TTITLE0=The Number Of The Beast
TTITLE1=The Trooper
TTITLE2=Prowler
TTITLE3=Transylvania
TTITLE4=Remember Tomorrow
TTITLE5=Where Eagles Dare
TTITLE6=Sanctuary
TTITLE7=Running Free
TTITLE8=Run To The Hills
TTITLE9=2 Minutes To Midnight
TTITLE10=Iron Maiden
TTITLE11=Hallowed Be Thy Name
EXTD=
EXTT0=
EXTT1=
EXTT2=
EXTT3=
EXTT4=
EXTT5=
EXTT6=
EXTT7=
EXTT8=
EXTT9=
EXTT10=
EXTT11=
PLAYORDER=
